<svg width="500" height="200" viewBox="0 0 500 200" fill="none" xmlns="http://www.w3.org/2000/svg">
<rect width="500" height="200" fill="white"/>
<path d="M173.987 53.4137C173.987 59.1813 169.37 63.8275 163.64 63.8275C157.909 63.8275 153.292 59.1813 153.292 53.4137C153.292 47.6461 157.75 43 163.64 43C169.53 43.1602 173.987 47.8063 173.987 53.4137ZM131.324 74.4014C131.324 75.3627 131.324 76.9648 131.324 76.9648C131.324 76.9648 126.389 70.5563 115.883 70.5563C98.5311 70.5563 85 83.8539 85 102.278C85 120.542 98.3719 134 115.883 134C126.548 134 131.324 127.431 131.324 127.431V130.155C131.324 131.437 132.279 132.398 133.553 132.398H146.447V72.1585C146.447 72.1585 134.667 72.1585 133.553 72.1585C132.279 72.1585 131.324 73.2799 131.324 74.4014ZM131.324 113.012C128.936 116.537 124.161 119.581 118.43 119.581C108.242 119.581 100.441 113.173 100.441 102.278C100.441 91.3838 108.242 84.9754 118.43 84.9754C124.001 84.9754 129.096 88.1796 131.324 91.544V113.012ZM155.999 72.1585H171.281V132.398H155.999V72.1585ZM384.276 70.5563C373.77 70.5563 368.835 76.9648 368.835 76.9648V43.1602H353.553V132.398C353.553 132.398 365.333 132.398 366.447 132.398C367.721 132.398 368.676 131.276 368.676 130.155V127.431C368.676 127.431 373.611 134 384.117 134C401.469 134 415 120.542 415 102.278C415 84.0141 401.469 70.5563 384.276 70.5563ZM381.729 119.421C375.839 119.421 371.223 116.377 368.835 112.852V91.3838C371.223 88.1796 376.317 84.8151 381.729 84.8151C391.918 84.8151 399.718 91.2236 399.718 102.118C399.718 113.012 391.918 119.421 381.729 119.421ZM345.593 96.6708V132.558H330.311V98.4331C330.311 88.5 327.127 84.4947 318.531 84.4947C313.915 84.4947 309.139 86.8979 306.114 90.4225V132.398H290.832V72.1585H302.931C304.204 72.1585 305.159 73.2799 305.159 74.4014V76.9648C309.616 72.3187 315.506 70.5563 321.397 70.5563C328.082 70.5563 333.654 72.4789 338.111 76.3239C343.524 80.8099 345.593 86.5775 345.593 96.6708ZM253.741 70.5563C243.234 70.5563 238.3 76.9648 238.3 76.9648V43.1602H223.017V132.398C223.017 132.398 234.797 132.398 235.912 132.398C237.185 132.398 238.14 131.276 238.14 130.155V127.431C238.14 127.431 243.075 134 253.582 134C270.933 134 284.465 120.542 284.465 102.278C284.624 84.0141 271.093 70.5563 253.741 70.5563ZM251.194 119.421C245.304 119.421 240.687 116.377 238.3 112.852V91.3838C240.687 88.1796 245.781 84.8151 251.194 84.8151C261.382 84.8151 269.182 91.2236 269.182 102.118C269.182 113.012 261.382 119.421 251.194 119.421ZM209.805 70.5563C214.421 70.5563 216.809 71.3574 216.809 71.3574V85.6162C216.809 85.6162 204.074 81.2905 196.114 90.4225V132.558H180.832V72.1585C180.832 72.1585 192.612 72.1585 193.726 72.1585C195 72.1585 195.955 73.2799 195.955 74.4014V76.9648C198.821 73.6004 205.029 70.5563 209.805 70.5563Z" fill="black" fill-opacity="0.5"/>
</svg>
