<svg width="500" height="200" viewBox="0 0 500 200" fill="none" xmlns="http://www.w3.org/2000/svg">
<rect width="500" height="200" fill="white"/>
<path fill-rule="evenodd" clip-rule="evenodd" d="M31.7284 84.2665H52.3388V124.434H62.8377V84.2665H83.5815V74.2908H31.7284V84.2665Z" fill="black" fill-opacity="0.5"/>
<path fill-rule="evenodd" clip-rule="evenodd" d="M102.355 124.435H112.858V74.2876H102.355V124.435Z" fill="black" fill-opacity="0.5"/>
<path fill-rule="evenodd" clip-rule="evenodd" d="M165.365 102.381L145.542 74.2886H135.04V124.436H145.542V92.1441L163.265 117.344H167.336L185.054 92.1441V124.436H195.557V74.2886H184.925L165.365 102.381Z" fill="black" fill-opacity="0.5"/>
<path fill-rule="evenodd" clip-rule="evenodd" d="M250.692 114.983H227.192V104.086H250.692C253.713 104.086 256.073 106.58 256.073 109.601C256.073 112.489 253.713 114.983 250.692 114.983ZM227.192 83.8742H248.986C252.007 83.8742 254.368 86.2351 254.368 89.2515C254.368 92.2722 252.007 94.6372 248.986 94.6372H227.192V83.8742ZM264.61 89.2515C264.61 80.981 257.912 74.2883 249.775 74.2883H216.69V124.435H251.347C259.617 124.435 266.315 117.743 266.315 109.601C266.315 105.136 264.344 101.198 261.327 98.4426C263.427 95.9484 264.61 92.6662 264.61 89.2515Z" fill="black" fill-opacity="0.5"/>
<path fill-rule="evenodd" clip-rule="evenodd" d="M407.302 74.2888H391.156L364.247 95.5557V74.2888H353.743V124.436H364.247V108.291L374.877 100.02L395.488 124.436H408.616L382.624 93.8496L407.302 74.2888Z" fill="black" fill-opacity="0.5"/>
<path fill-rule="evenodd" clip-rule="evenodd" d="M435.132 114.983L457.842 102.908C465.324 98.9658 468.606 94.3724 468.606 88.0729C468.606 79.9315 462.83 74.0269 454.954 74.0269H437.492C432.243 74.0269 428.439 75.0765 425.546 77.7039C422.135 80.5921 421.347 85.1855 421.347 88.596V90.567H431.326V88.9942C431.326 85.1855 433.559 83.2137 437.887 83.2137H452.721C455.742 83.2137 458.237 85.4471 458.237 88.3344C458.237 91.4842 455.742 93.1894 453.643 94.3724L427.518 108.29C423.446 110.783 421.612 112.622 421.347 117.344V124.435H469V114.983H435.132Z" fill="black" fill-opacity="0.5"/>
<path fill-rule="evenodd" clip-rule="evenodd" d="M323.681 109.208C319.611 113.013 314.362 115.112 308.718 115.112C303.07 115.112 297.821 113.013 293.75 109.208V74.2898H283.247V113.013C290.468 121.549 299.133 125.354 308.718 125.354C318.299 125.354 326.963 121.549 334.183 113.013V74.2898H323.681V109.208Z" fill="black" fill-opacity="0.5"/>
</svg>
