<svg width="500" height="200" viewBox="0 0 500 200" fill="none" xmlns="http://www.w3.org/2000/svg">
<rect width="500" height="200" fill="white"/>
<path d="M162.529 68.6391C141.098 69.1311 127.524 79.7786 127.524 103.412C127.524 117.936 136.106 132.464 160.941 132.464C168.756 132.464 177.68 131.312 184.64 127.81C185.215 127.527 185.314 125.315 187.13 118.012C187.514 116.478 188.345 113.626 187.711 112.921C186.847 111.964 185.655 115.127 184.358 118.692C181.48 126.565 170.906 128.309 165.386 128.309C149.98 128.309 143.924 113.094 143.924 100.417C143.924 82.7354 152.836 72.7695 166.309 72.822C170.751 72.8422 177.317 75.0644 179.946 77.0422C180.492 77.4491 182.576 82.9823 183.013 84.1528C183.875 86.4525 184.737 89.0545 185.792 89.5273C187.464 90.2954 186.111 84.5691 185.841 82.1796L184.701 72.1295C179.026 69.9814 172.969 68.9015 166.917 68.6756C165.421 68.619 163.958 68.6063 162.529 68.6391ZM421.225 69.2116C408.665 69.2116 396.173 77.3592 396.173 91.8853C396.173 101.492 403.067 106.566 411.269 108.101L415.486 108.945C417.404 109.324 420.479 109.805 420.906 112.537C421.48 116.192 419.371 117.342 415.063 117.24C410.243 117.138 405.14 114.522 401.378 111.441L400.308 110.518L394.179 126.776C400.688 130.31 409.127 132.388 416.407 132.388C428.896 132.388 441.461 125.158 441.461 110.555C441.461 100.184 435.029 95.1116 426.137 93.0369L421.383 91.8857C419.78 91.4961 417.173 90.7281 416.592 88.903C415.244 84.6162 419.448 83.6498 421.288 83.7193C426.884 83.9251 431.308 86.8907 434.226 88.9984L439.546 74.5925C433.878 70.8975 427.831 69.2116 421.225 69.2116ZM59.6189 70.0766C57.8878 69.9879 58.8559 71.3694 58.8559 71.3694L64.6043 73.5302C66.5142 74.2078 65.9023 74.0514 65.9023 79.8158V112.864C65.9023 132.466 88.4433 132.466 90.7385 132.466C95.5669 132.466 120.341 133.018 120.341 108.601L120.366 77.3784C120.366 74.0152 120.368 74.7842 123.43 73.4445L128.124 71.4283C128.988 70.4152 127.744 70.1694 127.744 70.1694C113.418 71.381 107.668 70.314 107.668 70.314C107.668 70.314 106.043 70.65 107.383 71.8561L111.356 73.2475C114.044 74.3997 114.426 73.5333 114.238 76.5718L114.207 108.855C114.207 112.238 114.045 127.463 96.4879 127.463C83.7659 127.463 79.6622 117.571 79.6622 109.578L79.5527 76.9926C79.6512 73.2454 79.1665 74.4965 82.8083 72.8617L87.4045 71.5134C88.3148 70.5048 86.9273 70.1683 86.9273 70.1683C71.1189 71.325 64.3152 70.3134 59.6189 70.0766ZM197.505 70.2059V131.438L224.256 131.471C241.351 131.471 253.529 119.866 253.529 101.724C253.529 79.2083 238.59 70.2061 219.041 70.2061L197.505 70.2059ZM272.069 70.2089L252.079 131.47H274.307L275.991 123.778H291.856L293.962 131.47H316.196L295.382 70.2089H272.069ZM303.974 70.2089L326.274 131.47H344.054L366.433 70.2089H344.519L335.165 107.178L325.809 70.2089H303.974ZM368.635 70.2089V131.47H389.659V70.2089H368.635ZM283.962 87.89C284.351 90.4989 288.176 109.246 288.176 109.246H279.774L283.962 87.89ZM218.664 88.2348H220.001C227.744 88.2348 232.379 93.0373 232.379 101.646C232.379 109.639 227.151 113.882 220.101 113.882H218.663L218.664 88.2348Z" fill="black" fill-opacity="0.5"/>
</svg>
